<mxfile host="app.diagrams.net" modified="2023-06-10T10:40:59.491Z" agent="Mozilla/5.0 (Windows NT 10.0; Win64; x64) AppleWebKit/537.36 (KHTML, like Gecko) Chrome/114.0.0.0 Safari/537.36" etag="nTVq3_g7cfuyapP_21j0" version="21.3.8" type="device">
  <diagram id="R2lEEEUBdFMjLlhIrx00" name="Page-1">
    <mxGraphModel dx="1900" dy="1681" grid="1" gridSize="10" guides="1" tooltips="1" connect="1" arrows="1" fold="1" page="1" pageScale="1" pageWidth="850" pageHeight="1100" math="0" shadow="0" extFonts="Permanent Marker^https://fonts.googleapis.com/css?family=Permanent+Marker">
      <root>
        <mxCell id="0" />
        <mxCell id="1" parent="0" />
        <mxCell id="nm9Y7-KqH_ktyWoFINpY-71" style="edgeStyle=orthogonalEdgeStyle;rounded=0;orthogonalLoop=1;jettySize=auto;html=1;exitX=0.75;exitY=0;exitDx=0;exitDy=0;" edge="1" parent="1" source="nm9Y7-KqH_ktyWoFINpY-1" target="nm9Y7-KqH_ktyWoFINpY-66">
          <mxGeometry relative="1" as="geometry" />
        </mxCell>
        <mxCell id="nm9Y7-KqH_ktyWoFINpY-72" style="edgeStyle=orthogonalEdgeStyle;rounded=0;orthogonalLoop=1;jettySize=auto;html=1;exitX=0.25;exitY=0;exitDx=0;exitDy=0;entryX=0.713;entryY=0.968;entryDx=0;entryDy=0;entryPerimeter=0;" edge="1" parent="1" source="nm9Y7-KqH_ktyWoFINpY-1" target="nm9Y7-KqH_ktyWoFINpY-67">
          <mxGeometry relative="1" as="geometry" />
        </mxCell>
        <mxCell id="nm9Y7-KqH_ktyWoFINpY-73" style="edgeStyle=orthogonalEdgeStyle;rounded=0;orthogonalLoop=1;jettySize=auto;html=1;exitX=0;exitY=0;exitDx=0;exitDy=0;entryX=1;entryY=1;entryDx=0;entryDy=0;" edge="1" parent="1" source="nm9Y7-KqH_ktyWoFINpY-1" target="nm9Y7-KqH_ktyWoFINpY-68">
          <mxGeometry relative="1" as="geometry" />
        </mxCell>
        <mxCell id="nm9Y7-KqH_ktyWoFINpY-74" style="edgeStyle=orthogonalEdgeStyle;rounded=0;orthogonalLoop=1;jettySize=auto;html=1;exitX=0;exitY=0.5;exitDx=0;exitDy=0;entryX=1;entryY=0.5;entryDx=0;entryDy=0;" edge="1" parent="1" source="nm9Y7-KqH_ktyWoFINpY-1" target="nm9Y7-KqH_ktyWoFINpY-69">
          <mxGeometry relative="1" as="geometry" />
        </mxCell>
        <mxCell id="nm9Y7-KqH_ktyWoFINpY-75" style="edgeStyle=orthogonalEdgeStyle;rounded=0;orthogonalLoop=1;jettySize=auto;html=1;exitX=0;exitY=1;exitDx=0;exitDy=0;entryX=0.938;entryY=0.18;entryDx=0;entryDy=0;entryPerimeter=0;" edge="1" parent="1" source="nm9Y7-KqH_ktyWoFINpY-1" target="nm9Y7-KqH_ktyWoFINpY-70">
          <mxGeometry relative="1" as="geometry" />
        </mxCell>
        <mxCell id="nm9Y7-KqH_ktyWoFINpY-1" value="" style="rounded=0;whiteSpace=wrap;html=1;" vertex="1" parent="1">
          <mxGeometry x="120" y="100" width="120" height="60" as="geometry" />
        </mxCell>
        <mxCell id="nm9Y7-KqH_ktyWoFINpY-38" style="edgeStyle=orthogonalEdgeStyle;rounded=0;orthogonalLoop=1;jettySize=auto;html=1;exitX=0.25;exitY=0;exitDx=0;exitDy=0;entryX=0.5;entryY=1;entryDx=0;entryDy=0;" edge="1" parent="1" source="nm9Y7-KqH_ktyWoFINpY-2" target="nm9Y7-KqH_ktyWoFINpY-35">
          <mxGeometry relative="1" as="geometry" />
        </mxCell>
        <mxCell id="nm9Y7-KqH_ktyWoFINpY-39" style="edgeStyle=orthogonalEdgeStyle;rounded=0;orthogonalLoop=1;jettySize=auto;html=1;exitX=0.75;exitY=0;exitDx=0;exitDy=0;entryX=0.5;entryY=1;entryDx=0;entryDy=0;" edge="1" parent="1" source="nm9Y7-KqH_ktyWoFINpY-2" target="nm9Y7-KqH_ktyWoFINpY-33">
          <mxGeometry relative="1" as="geometry" />
        </mxCell>
        <mxCell id="nm9Y7-KqH_ktyWoFINpY-41" style="edgeStyle=orthogonalEdgeStyle;rounded=0;orthogonalLoop=1;jettySize=auto;html=1;exitX=1;exitY=0.25;exitDx=0;exitDy=0;" edge="1" parent="1" source="nm9Y7-KqH_ktyWoFINpY-2" target="nm9Y7-KqH_ktyWoFINpY-29">
          <mxGeometry relative="1" as="geometry">
            <Array as="points">
              <mxPoint x="627" y="100" />
              <mxPoint x="697" y="100" />
              <mxPoint x="697" y="33" />
            </Array>
          </mxGeometry>
        </mxCell>
        <mxCell id="nm9Y7-KqH_ktyWoFINpY-42" style="edgeStyle=orthogonalEdgeStyle;rounded=0;orthogonalLoop=1;jettySize=auto;html=1;exitX=1;exitY=0.75;exitDx=0;exitDy=0;entryX=0.058;entryY=0.732;entryDx=0;entryDy=0;entryPerimeter=0;" edge="1" parent="1" source="nm9Y7-KqH_ktyWoFINpY-2" target="nm9Y7-KqH_ktyWoFINpY-36">
          <mxGeometry relative="1" as="geometry">
            <Array as="points">
              <mxPoint x="667" y="145" />
              <mxPoint x="667" y="120" />
              <mxPoint x="715" y="120" />
            </Array>
          </mxGeometry>
        </mxCell>
        <mxCell id="nm9Y7-KqH_ktyWoFINpY-44" style="edgeStyle=orthogonalEdgeStyle;rounded=0;orthogonalLoop=1;jettySize=auto;html=1;exitX=0.75;exitY=1;exitDx=0;exitDy=0;entryX=0.342;entryY=0.034;entryDx=0;entryDy=0;entryPerimeter=0;" edge="1" parent="1" source="nm9Y7-KqH_ktyWoFINpY-2" target="nm9Y7-KqH_ktyWoFINpY-31">
          <mxGeometry relative="1" as="geometry" />
        </mxCell>
        <mxCell id="nm9Y7-KqH_ktyWoFINpY-45" style="edgeStyle=orthogonalEdgeStyle;rounded=0;orthogonalLoop=1;jettySize=auto;html=1;exitX=0.25;exitY=1;exitDx=0;exitDy=0;" edge="1" parent="1" source="nm9Y7-KqH_ktyWoFINpY-2" target="nm9Y7-KqH_ktyWoFINpY-34">
          <mxGeometry relative="1" as="geometry" />
        </mxCell>
        <mxCell id="nm9Y7-KqH_ktyWoFINpY-56" style="edgeStyle=orthogonalEdgeStyle;rounded=0;orthogonalLoop=1;jettySize=auto;html=1;exitX=1;exitY=0;exitDx=0;exitDy=0;entryX=0.215;entryY=0.905;entryDx=0;entryDy=0;entryPerimeter=0;" edge="1" parent="1" source="nm9Y7-KqH_ktyWoFINpY-2" target="nm9Y7-KqH_ktyWoFINpY-32">
          <mxGeometry relative="1" as="geometry" />
        </mxCell>
        <mxCell id="nm9Y7-KqH_ktyWoFINpY-58" style="edgeStyle=orthogonalEdgeStyle;rounded=0;orthogonalLoop=1;jettySize=auto;html=1;exitX=1;exitY=1;exitDx=0;exitDy=0;entryX=0.5;entryY=0;entryDx=0;entryDy=0;" edge="1" parent="1" source="nm9Y7-KqH_ktyWoFINpY-2" target="nm9Y7-KqH_ktyWoFINpY-54">
          <mxGeometry relative="1" as="geometry">
            <Array as="points">
              <mxPoint x="627" y="180" />
              <mxPoint x="683" y="180" />
            </Array>
          </mxGeometry>
        </mxCell>
        <mxCell id="nm9Y7-KqH_ktyWoFINpY-59" style="edgeStyle=orthogonalEdgeStyle;rounded=0;orthogonalLoop=1;jettySize=auto;html=1;exitX=1;exitY=0.75;exitDx=0;exitDy=0;" edge="1" parent="1" source="nm9Y7-KqH_ktyWoFINpY-2" target="nm9Y7-KqH_ktyWoFINpY-30">
          <mxGeometry relative="1" as="geometry" />
        </mxCell>
        <mxCell id="nm9Y7-KqH_ktyWoFINpY-2" value="" style="rounded=0;whiteSpace=wrap;html=1;" vertex="1" parent="1">
          <mxGeometry x="507" y="100" width="120" height="60" as="geometry" />
        </mxCell>
        <mxCell id="nm9Y7-KqH_ktyWoFINpY-76" style="edgeStyle=orthogonalEdgeStyle;rounded=0;orthogonalLoop=1;jettySize=auto;html=1;exitX=0;exitY=0;exitDx=0;exitDy=0;" edge="1" parent="1" source="nm9Y7-KqH_ktyWoFINpY-3" target="nm9Y7-KqH_ktyWoFINpY-65">
          <mxGeometry relative="1" as="geometry" />
        </mxCell>
        <mxCell id="nm9Y7-KqH_ktyWoFINpY-77" style="edgeStyle=orthogonalEdgeStyle;rounded=0;orthogonalLoop=1;jettySize=auto;html=1;exitX=0;exitY=0.75;exitDx=0;exitDy=0;entryX=1;entryY=0;entryDx=0;entryDy=0;" edge="1" parent="1" source="nm9Y7-KqH_ktyWoFINpY-3" target="nm9Y7-KqH_ktyWoFINpY-64">
          <mxGeometry relative="1" as="geometry" />
        </mxCell>
        <mxCell id="nm9Y7-KqH_ktyWoFINpY-78" style="edgeStyle=orthogonalEdgeStyle;rounded=0;orthogonalLoop=1;jettySize=auto;html=1;exitX=0.25;exitY=1;exitDx=0;exitDy=0;" edge="1" parent="1" source="nm9Y7-KqH_ktyWoFINpY-3" target="nm9Y7-KqH_ktyWoFINpY-63">
          <mxGeometry relative="1" as="geometry" />
        </mxCell>
        <mxCell id="nm9Y7-KqH_ktyWoFINpY-79" style="edgeStyle=orthogonalEdgeStyle;rounded=0;orthogonalLoop=1;jettySize=auto;html=1;exitX=0.75;exitY=1;exitDx=0;exitDy=0;entryX=0.364;entryY=0.022;entryDx=0;entryDy=0;entryPerimeter=0;" edge="1" parent="1" source="nm9Y7-KqH_ktyWoFINpY-3" target="nm9Y7-KqH_ktyWoFINpY-62">
          <mxGeometry relative="1" as="geometry" />
        </mxCell>
        <mxCell id="nm9Y7-KqH_ktyWoFINpY-3" value="" style="rounded=0;whiteSpace=wrap;html=1;" vertex="1" parent="1">
          <mxGeometry x="120" y="370" width="120" height="60" as="geometry" />
        </mxCell>
        <mxCell id="nm9Y7-KqH_ktyWoFINpY-60" style="edgeStyle=orthogonalEdgeStyle;rounded=0;orthogonalLoop=1;jettySize=auto;html=1;exitX=0.5;exitY=1;exitDx=0;exitDy=0;entryX=0.5;entryY=0;entryDx=0;entryDy=0;" edge="1" parent="1" source="nm9Y7-KqH_ktyWoFINpY-4" target="nm9Y7-KqH_ktyWoFINpY-28">
          <mxGeometry relative="1" as="geometry" />
        </mxCell>
        <mxCell id="nm9Y7-KqH_ktyWoFINpY-61" style="edgeStyle=orthogonalEdgeStyle;rounded=0;orthogonalLoop=1;jettySize=auto;html=1;exitX=1;exitY=0.5;exitDx=0;exitDy=0;entryX=0;entryY=0.5;entryDx=0;entryDy=0;" edge="1" parent="1" source="nm9Y7-KqH_ktyWoFINpY-4" target="nm9Y7-KqH_ktyWoFINpY-27">
          <mxGeometry relative="1" as="geometry" />
        </mxCell>
        <mxCell id="nm9Y7-KqH_ktyWoFINpY-4" value="" style="rounded=0;whiteSpace=wrap;html=1;" vertex="1" parent="1">
          <mxGeometry x="507" y="370" width="120" height="60" as="geometry" />
        </mxCell>
        <mxCell id="nm9Y7-KqH_ktyWoFINpY-5" value="" style="rhombus;whiteSpace=wrap;html=1;rounded=0;" vertex="1" parent="1">
          <mxGeometry x="140" y="220" width="80" height="80" as="geometry" />
        </mxCell>
        <mxCell id="nm9Y7-KqH_ktyWoFINpY-8" value="" style="endArrow=none;html=1;rounded=0;entryX=1;entryY=0.5;entryDx=0;entryDy=0;exitX=0;exitY=0.5;exitDx=0;exitDy=0;" edge="1" parent="1" source="nm9Y7-KqH_ktyWoFINpY-2" target="nm9Y7-KqH_ktyWoFINpY-1">
          <mxGeometry width="50" height="50" relative="1" as="geometry">
            <mxPoint x="260" y="150" as="sourcePoint" />
            <mxPoint x="260" y="110" as="targetPoint" />
          </mxGeometry>
        </mxCell>
        <mxCell id="nm9Y7-KqH_ktyWoFINpY-9" value="" style="endArrow=none;html=1;rounded=0;entryX=0.5;entryY=1;entryDx=0;entryDy=0;exitX=0.5;exitY=0;exitDx=0;exitDy=0;" edge="1" parent="1" source="nm9Y7-KqH_ktyWoFINpY-5">
          <mxGeometry width="50" height="50" relative="1" as="geometry">
            <mxPoint x="179.5" y="200" as="sourcePoint" />
            <mxPoint x="179.5" y="160" as="targetPoint" />
          </mxGeometry>
        </mxCell>
        <mxCell id="nm9Y7-KqH_ktyWoFINpY-10" value="" style="endArrow=none;html=1;rounded=0;entryX=0.5;entryY=1;entryDx=0;entryDy=0;exitX=0.5;exitY=0;exitDx=0;exitDy=0;" edge="1" parent="1" target="nm9Y7-KqH_ktyWoFINpY-5">
          <mxGeometry width="50" height="50" relative="1" as="geometry">
            <mxPoint x="179.5" y="370" as="sourcePoint" />
            <mxPoint x="179.5" y="330" as="targetPoint" />
          </mxGeometry>
        </mxCell>
        <mxCell id="nm9Y7-KqH_ktyWoFINpY-6" value="" style="rhombus;whiteSpace=wrap;html=1;rounded=0;" vertex="1" parent="1">
          <mxGeometry x="330" y="87.5" width="80" height="80" as="geometry" />
        </mxCell>
        <mxCell id="nm9Y7-KqH_ktyWoFINpY-12" value="Randevu" style="text;html=1;strokeColor=none;fillColor=none;align=center;verticalAlign=middle;whiteSpace=wrap;rounded=0;strokeWidth=2;fontStyle=0;" vertex="1" parent="1">
          <mxGeometry x="150" y="115" width="60" height="30" as="geometry" />
        </mxCell>
        <mxCell id="nm9Y7-KqH_ktyWoFINpY-13" value="Doktor" style="text;html=1;strokeColor=none;fillColor=none;align=center;verticalAlign=middle;whiteSpace=wrap;rounded=0;strokeWidth=2;fontStyle=0;" vertex="1" parent="1">
          <mxGeometry x="150" y="385" width="60" height="30" as="geometry" />
        </mxCell>
        <mxCell id="nm9Y7-KqH_ktyWoFINpY-14" value="Poliklinik" style="text;html=1;strokeColor=none;fillColor=none;align=center;verticalAlign=middle;whiteSpace=wrap;rounded=0;strokeWidth=2;fontStyle=0;" vertex="1" parent="1">
          <mxGeometry x="537" y="385" width="60" height="30" as="geometry" />
        </mxCell>
        <mxCell id="nm9Y7-KqH_ktyWoFINpY-15" value="Hasta" style="text;html=1;strokeColor=none;fillColor=none;align=center;verticalAlign=middle;whiteSpace=wrap;rounded=0;strokeWidth=2;fontStyle=0;" vertex="1" parent="1">
          <mxGeometry x="537" y="115" width="60" height="30" as="geometry" />
        </mxCell>
        <mxCell id="nm9Y7-KqH_ktyWoFINpY-20" value="" style="endArrow=none;html=1;rounded=0;exitX=1;exitY=0.5;exitDx=0;exitDy=0;entryX=0;entryY=0.5;entryDx=0;entryDy=0;" edge="1" parent="1" source="nm9Y7-KqH_ktyWoFINpY-21" target="nm9Y7-KqH_ktyWoFINpY-4">
          <mxGeometry width="50" height="50" relative="1" as="geometry">
            <mxPoint x="480" y="380" as="sourcePoint" />
            <mxPoint x="530" y="330" as="targetPoint" />
          </mxGeometry>
        </mxCell>
        <mxCell id="nm9Y7-KqH_ktyWoFINpY-22" value="" style="endArrow=none;html=1;rounded=0;exitX=1;exitY=0.5;exitDx=0;exitDy=0;entryX=0;entryY=0.5;entryDx=0;entryDy=0;" edge="1" parent="1" source="nm9Y7-KqH_ktyWoFINpY-3" target="nm9Y7-KqH_ktyWoFINpY-21">
          <mxGeometry width="50" height="50" relative="1" as="geometry">
            <mxPoint x="240" y="400" as="sourcePoint" />
            <mxPoint x="400" y="400" as="targetPoint" />
          </mxGeometry>
        </mxCell>
        <mxCell id="nm9Y7-KqH_ktyWoFINpY-21" value="" style="rhombus;whiteSpace=wrap;html=1;rounded=0;" vertex="1" parent="1">
          <mxGeometry x="340" y="360" width="80" height="80" as="geometry" />
        </mxCell>
        <mxCell id="nm9Y7-KqH_ktyWoFINpY-23" value="Çalışır" style="text;html=1;strokeColor=none;fillColor=none;align=center;verticalAlign=middle;whiteSpace=wrap;rounded=0;" vertex="1" parent="1">
          <mxGeometry x="350" y="385" width="60" height="30" as="geometry" />
        </mxCell>
        <mxCell id="nm9Y7-KqH_ktyWoFINpY-24" value="Alır" style="text;html=1;strokeColor=none;fillColor=none;align=center;verticalAlign=middle;whiteSpace=wrap;rounded=0;" vertex="1" parent="1">
          <mxGeometry x="340" y="112.5" width="60" height="30" as="geometry" />
        </mxCell>
        <mxCell id="nm9Y7-KqH_ktyWoFINpY-25" value="Verir" style="text;html=1;strokeColor=none;fillColor=none;align=center;verticalAlign=middle;whiteSpace=wrap;rounded=0;" vertex="1" parent="1">
          <mxGeometry x="150" y="245" width="60" height="30" as="geometry" />
        </mxCell>
        <mxCell id="nm9Y7-KqH_ktyWoFINpY-27" value="Poliklinik Adı" style="ellipse;whiteSpace=wrap;html=1;rounded=0;" vertex="1" parent="1">
          <mxGeometry x="667" y="365" width="110" height="65" as="geometry" />
        </mxCell>
        <mxCell id="nm9Y7-KqH_ktyWoFINpY-28" value="&lt;u&gt;PoliklinikID&lt;/u&gt;" style="ellipse;whiteSpace=wrap;html=1;rounded=0;" vertex="1" parent="1">
          <mxGeometry x="512" y="460" width="110" height="65" as="geometry" />
        </mxCell>
        <mxCell id="nm9Y7-KqH_ktyWoFINpY-29" value="" style="ellipse;whiteSpace=wrap;html=1;rounded=0;" vertex="1" parent="1">
          <mxGeometry x="709" y="-8" width="110" height="65" as="geometry" />
        </mxCell>
        <mxCell id="nm9Y7-KqH_ktyWoFINpY-30" value="" style="ellipse;whiteSpace=wrap;html=1;rounded=0;" vertex="1" parent="1">
          <mxGeometry x="709" y="132" width="110" height="65" as="geometry" />
        </mxCell>
        <mxCell id="nm9Y7-KqH_ktyWoFINpY-31" value="" style="ellipse;whiteSpace=wrap;html=1;rounded=0;" vertex="1" parent="1">
          <mxGeometry x="514" y="190" width="110" height="65" as="geometry" />
        </mxCell>
        <mxCell id="nm9Y7-KqH_ktyWoFINpY-32" value="" style="ellipse;whiteSpace=wrap;html=1;rounded=0;" vertex="1" parent="1">
          <mxGeometry x="647" y="-65" width="110" height="65" as="geometry" />
        </mxCell>
        <mxCell id="nm9Y7-KqH_ktyWoFINpY-33" value="" style="ellipse;whiteSpace=wrap;html=1;rounded=0;" vertex="1" parent="1">
          <mxGeometry x="531" y="-65" width="110" height="65" as="geometry" />
        </mxCell>
        <mxCell id="nm9Y7-KqH_ktyWoFINpY-34" value="" style="ellipse;whiteSpace=wrap;html=1;rounded=0;" vertex="1" parent="1">
          <mxGeometry x="400" y="190" width="110" height="65" as="geometry" />
        </mxCell>
        <mxCell id="nm9Y7-KqH_ktyWoFINpY-35" value="" style="ellipse;whiteSpace=wrap;html=1;rounded=0;" vertex="1" parent="1">
          <mxGeometry x="417" y="-65" width="110" height="65" as="geometry" />
        </mxCell>
        <mxCell id="nm9Y7-KqH_ktyWoFINpY-36" value="" style="ellipse;whiteSpace=wrap;html=1;rounded=0;" vertex="1" parent="1">
          <mxGeometry x="709" y="63" width="110" height="65" as="geometry" />
        </mxCell>
        <mxCell id="nm9Y7-KqH_ktyWoFINpY-46" value="&lt;u&gt;HastaID&lt;/u&gt;" style="text;html=1;strokeColor=none;fillColor=none;align=center;verticalAlign=middle;whiteSpace=wrap;rounded=0;" vertex="1" parent="1">
          <mxGeometry x="437" y="-47.5" width="60" height="30" as="geometry" />
        </mxCell>
        <mxCell id="nm9Y7-KqH_ktyWoFINpY-47" value="Adı" style="text;html=1;strokeColor=none;fillColor=none;align=center;verticalAlign=middle;whiteSpace=wrap;rounded=0;" vertex="1" parent="1">
          <mxGeometry x="556" y="-47.5" width="60" height="30" as="geometry" />
        </mxCell>
        <mxCell id="nm9Y7-KqH_ktyWoFINpY-48" value="Soyadı" style="text;html=1;strokeColor=none;fillColor=none;align=center;verticalAlign=middle;whiteSpace=wrap;rounded=0;" vertex="1" parent="1">
          <mxGeometry x="672" y="-47.5" width="60" height="30" as="geometry" />
        </mxCell>
        <mxCell id="nm9Y7-KqH_ktyWoFINpY-49" value="TC" style="text;html=1;strokeColor=none;fillColor=none;align=center;verticalAlign=middle;whiteSpace=wrap;rounded=0;" vertex="1" parent="1">
          <mxGeometry x="734" y="9.5" width="60" height="30" as="geometry" />
        </mxCell>
        <mxCell id="nm9Y7-KqH_ktyWoFINpY-50" value="Mail" style="text;html=1;strokeColor=none;fillColor=none;align=center;verticalAlign=middle;whiteSpace=wrap;rounded=0;" vertex="1" parent="1">
          <mxGeometry x="734" y="80.5" width="60" height="30" as="geometry" />
        </mxCell>
        <mxCell id="nm9Y7-KqH_ktyWoFINpY-51" value="Telefon" style="text;html=1;strokeColor=none;fillColor=none;align=center;verticalAlign=middle;whiteSpace=wrap;rounded=0;" vertex="1" parent="1">
          <mxGeometry x="734" y="149.5" width="60" height="30" as="geometry" />
        </mxCell>
        <mxCell id="nm9Y7-KqH_ktyWoFINpY-52" value="Cinsiyeti" style="text;html=1;strokeColor=none;fillColor=none;align=center;verticalAlign=middle;whiteSpace=wrap;rounded=0;" vertex="1" parent="1">
          <mxGeometry x="539" y="207.5" width="60" height="30" as="geometry" />
        </mxCell>
        <mxCell id="nm9Y7-KqH_ktyWoFINpY-53" value="Doğum Tarihi" style="text;html=1;strokeColor=none;fillColor=none;align=center;verticalAlign=middle;whiteSpace=wrap;rounded=0;" vertex="1" parent="1">
          <mxGeometry x="420" y="207.5" width="60" height="30" as="geometry" />
        </mxCell>
        <mxCell id="nm9Y7-KqH_ktyWoFINpY-54" value="" style="ellipse;whiteSpace=wrap;html=1;rounded=0;" vertex="1" parent="1">
          <mxGeometry x="628" y="185.5" width="110" height="65" as="geometry" />
        </mxCell>
        <mxCell id="nm9Y7-KqH_ktyWoFINpY-55" value="Şifre" style="text;html=1;strokeColor=none;fillColor=none;align=center;verticalAlign=middle;whiteSpace=wrap;rounded=0;" vertex="1" parent="1">
          <mxGeometry x="653" y="203" width="60" height="30" as="geometry" />
        </mxCell>
        <mxCell id="nm9Y7-KqH_ktyWoFINpY-62" value="PoliklinikNo" style="ellipse;whiteSpace=wrap;html=1;rounded=0;" vertex="1" parent="1">
          <mxGeometry x="200" y="460" width="110" height="65" as="geometry" />
        </mxCell>
        <mxCell id="nm9Y7-KqH_ktyWoFINpY-63" value="Soyadı" style="ellipse;whiteSpace=wrap;html=1;rounded=0;" vertex="1" parent="1">
          <mxGeometry x="70" y="460" width="110" height="65" as="geometry" />
        </mxCell>
        <mxCell id="nm9Y7-KqH_ktyWoFINpY-64" value="Adı" style="ellipse;whiteSpace=wrap;html=1;rounded=0;" vertex="1" parent="1">
          <mxGeometry x="-50" y="410" width="110" height="65" as="geometry" />
        </mxCell>
        <mxCell id="nm9Y7-KqH_ktyWoFINpY-65" value="&lt;u&gt;DoktorID&lt;/u&gt;" style="ellipse;whiteSpace=wrap;html=1;rounded=0;" vertex="1" parent="1">
          <mxGeometry x="-60" y="320" width="110" height="65" as="geometry" />
        </mxCell>
        <mxCell id="nm9Y7-KqH_ktyWoFINpY-66" value="&lt;u&gt;RandevuID&lt;/u&gt;" style="ellipse;whiteSpace=wrap;html=1;rounded=0;" vertex="1" parent="1">
          <mxGeometry x="160" y="-47.5" width="110" height="65" as="geometry" />
        </mxCell>
        <mxCell id="nm9Y7-KqH_ktyWoFINpY-67" value="HastaNo" style="ellipse;whiteSpace=wrap;html=1;rounded=0;" vertex="1" parent="1">
          <mxGeometry x="40" y="-47.5" width="110" height="65" as="geometry" />
        </mxCell>
        <mxCell id="nm9Y7-KqH_ktyWoFINpY-68" value="DoktorNo" style="ellipse;whiteSpace=wrap;html=1;rounded=0;" vertex="1" parent="1">
          <mxGeometry x="-50" y="9.5" width="110" height="65" as="geometry" />
        </mxCell>
        <mxCell id="nm9Y7-KqH_ktyWoFINpY-69" value="Tarih" style="ellipse;whiteSpace=wrap;html=1;rounded=0;" vertex="1" parent="1">
          <mxGeometry x="-50" y="95" width="110" height="65" as="geometry" />
        </mxCell>
        <mxCell id="nm9Y7-KqH_ktyWoFINpY-70" value="Saat" style="ellipse;whiteSpace=wrap;html=1;rounded=0;" vertex="1" parent="1">
          <mxGeometry y="172.5" width="110" height="65" as="geometry" />
        </mxCell>
        <mxCell id="nm9Y7-KqH_ktyWoFINpY-82" value="N" style="text;html=1;strokeColor=none;fillColor=none;align=center;verticalAlign=middle;whiteSpace=wrap;rounded=0;" vertex="1" parent="1">
          <mxGeometry x="240" y="100" width="60" height="30" as="geometry" />
        </mxCell>
        <mxCell id="nm9Y7-KqH_ktyWoFINpY-83" value="1" style="text;html=1;strokeColor=none;fillColor=none;align=center;verticalAlign=middle;whiteSpace=wrap;rounded=0;" vertex="1" parent="1">
          <mxGeometry x="447" y="98" width="60" height="30" as="geometry" />
        </mxCell>
        <mxCell id="nm9Y7-KqH_ktyWoFINpY-84" value="N" style="text;html=1;strokeColor=none;fillColor=none;align=center;verticalAlign=middle;whiteSpace=wrap;rounded=0;" vertex="1" parent="1">
          <mxGeometry x="180" y="160" width="60" height="30" as="geometry" />
        </mxCell>
        <mxCell id="nm9Y7-KqH_ktyWoFINpY-85" value="1" style="text;html=1;strokeColor=none;fillColor=none;align=center;verticalAlign=middle;whiteSpace=wrap;rounded=0;" vertex="1" parent="1">
          <mxGeometry x="180" y="340" width="60" height="30" as="geometry" />
        </mxCell>
        <mxCell id="nm9Y7-KqH_ktyWoFINpY-86" value="1" style="text;html=1;strokeColor=none;fillColor=none;align=center;verticalAlign=middle;whiteSpace=wrap;rounded=0;" vertex="1" parent="1">
          <mxGeometry x="447" y="370" width="60" height="30" as="geometry" />
        </mxCell>
        <mxCell id="nm9Y7-KqH_ktyWoFINpY-87" value="N" style="text;html=1;strokeColor=none;fillColor=none;align=center;verticalAlign=middle;whiteSpace=wrap;rounded=0;" vertex="1" parent="1">
          <mxGeometry x="240" y="370" width="60" height="30" as="geometry" />
        </mxCell>
      </root>
    </mxGraphModel>
  </diagram>
</mxfile>
